<mxfile host="app.diagrams.net" modified="2023-03-28T02:58:26.945Z" agent="Mozilla/5.0 (Macintosh; Intel Mac OS X 10_15_7) AppleWebKit/537.36 (KHTML, like Gecko) Chrome/111.0.0.0 Safari/537.36" etag="XK2y5y0odC5-e_qc1tM2" version="21.1.1" type="github">
  <diagram name="Page-1" id="Bbi1exefk0Ek5RUEpcpd">
    <mxGraphModel dx="1060" dy="596" grid="1" gridSize="10" guides="1" tooltips="1" connect="1" arrows="1" fold="1" page="1" pageScale="1" pageWidth="850" pageHeight="1100" math="0" shadow="0">
      <root>
        <mxCell id="0" />
        <mxCell id="1" parent="0" />
        <mxCell id="3EPdU6W2R7ERKH5k_RKv-1" value="" style="rounded=0;whiteSpace=wrap;html=1;" parent="1" vertex="1">
          <mxGeometry x="50" y="250" width="680" height="200" as="geometry" />
        </mxCell>
        <mxCell id="3EPdU6W2R7ERKH5k_RKv-2" value="" style="sketch=0;outlineConnect=0;fontColor=#232F3E;gradientColor=none;strokeColor=#232F3E;fillColor=#ffffff;dashed=0;verticalLabelPosition=bottom;verticalAlign=top;align=center;html=1;fontSize=12;fontStyle=0;aspect=fixed;shape=mxgraph.aws4.resourceIcon;resIcon=mxgraph.aws4.camera;" parent="1" vertex="1">
          <mxGeometry x="60" y="290" width="60" height="60" as="geometry" />
        </mxCell>
        <mxCell id="3EPdU6W2R7ERKH5k_RKv-3" value="" style="sketch=0;outlineConnect=0;fontColor=#232F3E;gradientColor=none;fillColor=#3F8624;strokeColor=none;dashed=0;verticalLabelPosition=bottom;verticalAlign=top;align=center;html=1;fontSize=12;fontStyle=0;aspect=fixed;pointerEvents=1;shape=mxgraph.aws4.camera;" parent="1" vertex="1">
          <mxGeometry x="120" y="295" width="50" height="50" as="geometry" />
        </mxCell>
        <mxCell id="3EPdU6W2R7ERKH5k_RKv-4" value="" style="childLayout=tableLayout;recursiveResize=0;shadow=0;fillColor=none;" parent="1" vertex="1">
          <mxGeometry x="390" y="570" width="178" height="183" as="geometry" />
        </mxCell>
        <mxCell id="zaTpepWHVZMuqjSjkpA7-61" style="shape=tableRow;horizontal=0;startSize=0;swimlaneHead=0;swimlaneBody=0;top=0;left=0;bottom=0;right=0;dropTarget=0;collapsible=0;recursiveResize=0;expand=0;fontStyle=0;fillColor=none;strokeColor=inherit;" vertex="1" parent="3EPdU6W2R7ERKH5k_RKv-4">
          <mxGeometry width="178" height="21" as="geometry" />
        </mxCell>
        <mxCell id="zaTpepWHVZMuqjSjkpA7-62" style="connectable=0;recursiveResize=0;strokeColor=inherit;fillColor=none;align=center;whiteSpace=wrap;html=1;" vertex="1" parent="zaTpepWHVZMuqjSjkpA7-61">
          <mxGeometry width="23" height="21" as="geometry">
            <mxRectangle width="23" height="21" as="alternateBounds" />
          </mxGeometry>
        </mxCell>
        <mxCell id="zaTpepWHVZMuqjSjkpA7-63" style="connectable=0;recursiveResize=0;strokeColor=inherit;fillColor=none;align=center;whiteSpace=wrap;html=1;" vertex="1" parent="zaTpepWHVZMuqjSjkpA7-61">
          <mxGeometry x="23" width="22" height="21" as="geometry">
            <mxRectangle width="22" height="21" as="alternateBounds" />
          </mxGeometry>
        </mxCell>
        <mxCell id="zaTpepWHVZMuqjSjkpA7-64" style="connectable=0;recursiveResize=0;strokeColor=inherit;fillColor=none;align=center;whiteSpace=wrap;html=1;" vertex="1" parent="zaTpepWHVZMuqjSjkpA7-61">
          <mxGeometry x="45" width="22" height="21" as="geometry">
            <mxRectangle width="22" height="21" as="alternateBounds" />
          </mxGeometry>
        </mxCell>
        <mxCell id="zaTpepWHVZMuqjSjkpA7-65" style="connectable=0;recursiveResize=0;strokeColor=inherit;fillColor=none;align=center;whiteSpace=wrap;html=1;" vertex="1" parent="zaTpepWHVZMuqjSjkpA7-61">
          <mxGeometry x="67" width="23" height="21" as="geometry">
            <mxRectangle width="23" height="21" as="alternateBounds" />
          </mxGeometry>
        </mxCell>
        <mxCell id="zaTpepWHVZMuqjSjkpA7-66" style="connectable=0;recursiveResize=0;strokeColor=inherit;fillColor=none;align=center;whiteSpace=wrap;html=1;" vertex="1" parent="zaTpepWHVZMuqjSjkpA7-61">
          <mxGeometry x="90" width="23" height="21" as="geometry">
            <mxRectangle width="23" height="21" as="alternateBounds" />
          </mxGeometry>
        </mxCell>
        <mxCell id="zaTpepWHVZMuqjSjkpA7-67" style="connectable=0;recursiveResize=0;strokeColor=inherit;fillColor=none;align=center;whiteSpace=wrap;html=1;" vertex="1" parent="zaTpepWHVZMuqjSjkpA7-61">
          <mxGeometry x="113" width="22" height="21" as="geometry">
            <mxRectangle width="22" height="21" as="alternateBounds" />
          </mxGeometry>
        </mxCell>
        <mxCell id="zaTpepWHVZMuqjSjkpA7-68" style="connectable=0;recursiveResize=0;strokeColor=inherit;fillColor=none;align=center;whiteSpace=wrap;html=1;" vertex="1" parent="zaTpepWHVZMuqjSjkpA7-61">
          <mxGeometry x="135" width="22" height="21" as="geometry">
            <mxRectangle width="22" height="21" as="alternateBounds" />
          </mxGeometry>
        </mxCell>
        <mxCell id="zaTpepWHVZMuqjSjkpA7-69" style="connectable=0;recursiveResize=0;strokeColor=inherit;fillColor=none;align=center;whiteSpace=wrap;html=1;" vertex="1" parent="zaTpepWHVZMuqjSjkpA7-61">
          <mxGeometry x="157" width="21" height="21" as="geometry">
            <mxRectangle width="21" height="21" as="alternateBounds" />
          </mxGeometry>
        </mxCell>
        <mxCell id="zaTpepWHVZMuqjSjkpA7-52" style="shape=tableRow;horizontal=0;startSize=0;swimlaneHead=0;swimlaneBody=0;top=0;left=0;bottom=0;right=0;dropTarget=0;collapsible=0;recursiveResize=0;expand=0;fontStyle=0;fillColor=none;strokeColor=inherit;" vertex="1" parent="3EPdU6W2R7ERKH5k_RKv-4">
          <mxGeometry y="21" width="178" height="20" as="geometry" />
        </mxCell>
        <mxCell id="zaTpepWHVZMuqjSjkpA7-53" style="connectable=0;recursiveResize=0;strokeColor=inherit;fillColor=none;align=center;whiteSpace=wrap;html=1;" vertex="1" parent="zaTpepWHVZMuqjSjkpA7-52">
          <mxGeometry width="23" height="20" as="geometry">
            <mxRectangle width="23" height="20" as="alternateBounds" />
          </mxGeometry>
        </mxCell>
        <mxCell id="zaTpepWHVZMuqjSjkpA7-54" style="connectable=0;recursiveResize=0;strokeColor=inherit;fillColor=none;align=center;whiteSpace=wrap;html=1;" vertex="1" parent="zaTpepWHVZMuqjSjkpA7-52">
          <mxGeometry x="23" width="22" height="20" as="geometry">
            <mxRectangle width="22" height="20" as="alternateBounds" />
          </mxGeometry>
        </mxCell>
        <mxCell id="zaTpepWHVZMuqjSjkpA7-55" style="connectable=0;recursiveResize=0;strokeColor=inherit;fillColor=none;align=center;whiteSpace=wrap;html=1;" vertex="1" parent="zaTpepWHVZMuqjSjkpA7-52">
          <mxGeometry x="45" width="22" height="20" as="geometry">
            <mxRectangle width="22" height="20" as="alternateBounds" />
          </mxGeometry>
        </mxCell>
        <mxCell id="zaTpepWHVZMuqjSjkpA7-56" style="connectable=0;recursiveResize=0;strokeColor=inherit;fillColor=none;align=center;whiteSpace=wrap;html=1;" vertex="1" parent="zaTpepWHVZMuqjSjkpA7-52">
          <mxGeometry x="67" width="23" height="20" as="geometry">
            <mxRectangle width="23" height="20" as="alternateBounds" />
          </mxGeometry>
        </mxCell>
        <mxCell id="zaTpepWHVZMuqjSjkpA7-57" style="connectable=0;recursiveResize=0;strokeColor=inherit;fillColor=none;align=center;whiteSpace=wrap;html=1;" vertex="1" parent="zaTpepWHVZMuqjSjkpA7-52">
          <mxGeometry x="90" width="23" height="20" as="geometry">
            <mxRectangle width="23" height="20" as="alternateBounds" />
          </mxGeometry>
        </mxCell>
        <mxCell id="zaTpepWHVZMuqjSjkpA7-58" style="connectable=0;recursiveResize=0;strokeColor=inherit;fillColor=none;align=center;whiteSpace=wrap;html=1;" vertex="1" parent="zaTpepWHVZMuqjSjkpA7-52">
          <mxGeometry x="113" width="22" height="20" as="geometry">
            <mxRectangle width="22" height="20" as="alternateBounds" />
          </mxGeometry>
        </mxCell>
        <mxCell id="zaTpepWHVZMuqjSjkpA7-59" style="connectable=0;recursiveResize=0;strokeColor=inherit;fillColor=none;align=center;whiteSpace=wrap;html=1;" vertex="1" parent="zaTpepWHVZMuqjSjkpA7-52">
          <mxGeometry x="135" width="22" height="20" as="geometry">
            <mxRectangle width="22" height="20" as="alternateBounds" />
          </mxGeometry>
        </mxCell>
        <mxCell id="zaTpepWHVZMuqjSjkpA7-60" style="connectable=0;recursiveResize=0;strokeColor=inherit;fillColor=none;align=center;whiteSpace=wrap;html=1;" vertex="1" parent="zaTpepWHVZMuqjSjkpA7-52">
          <mxGeometry x="157" width="21" height="20" as="geometry">
            <mxRectangle width="21" height="20" as="alternateBounds" />
          </mxGeometry>
        </mxCell>
        <mxCell id="zaTpepWHVZMuqjSjkpA7-43" style="shape=tableRow;horizontal=0;startSize=0;swimlaneHead=0;swimlaneBody=0;top=0;left=0;bottom=0;right=0;dropTarget=0;collapsible=0;recursiveResize=0;expand=0;fontStyle=0;fillColor=none;strokeColor=inherit;" vertex="1" parent="3EPdU6W2R7ERKH5k_RKv-4">
          <mxGeometry y="41" width="178" height="21" as="geometry" />
        </mxCell>
        <mxCell id="zaTpepWHVZMuqjSjkpA7-44" style="connectable=0;recursiveResize=0;strokeColor=inherit;fillColor=none;align=center;whiteSpace=wrap;html=1;" vertex="1" parent="zaTpepWHVZMuqjSjkpA7-43">
          <mxGeometry width="23" height="21" as="geometry">
            <mxRectangle width="23" height="21" as="alternateBounds" />
          </mxGeometry>
        </mxCell>
        <mxCell id="zaTpepWHVZMuqjSjkpA7-45" style="connectable=0;recursiveResize=0;strokeColor=inherit;fillColor=none;align=center;whiteSpace=wrap;html=1;" vertex="1" parent="zaTpepWHVZMuqjSjkpA7-43">
          <mxGeometry x="23" width="22" height="21" as="geometry">
            <mxRectangle width="22" height="21" as="alternateBounds" />
          </mxGeometry>
        </mxCell>
        <mxCell id="zaTpepWHVZMuqjSjkpA7-46" style="connectable=0;recursiveResize=0;strokeColor=inherit;fillColor=none;align=center;whiteSpace=wrap;html=1;" vertex="1" parent="zaTpepWHVZMuqjSjkpA7-43">
          <mxGeometry x="45" width="22" height="21" as="geometry">
            <mxRectangle width="22" height="21" as="alternateBounds" />
          </mxGeometry>
        </mxCell>
        <mxCell id="zaTpepWHVZMuqjSjkpA7-47" style="connectable=0;recursiveResize=0;strokeColor=inherit;fillColor=none;align=center;whiteSpace=wrap;html=1;" vertex="1" parent="zaTpepWHVZMuqjSjkpA7-43">
          <mxGeometry x="67" width="23" height="21" as="geometry">
            <mxRectangle width="23" height="21" as="alternateBounds" />
          </mxGeometry>
        </mxCell>
        <mxCell id="zaTpepWHVZMuqjSjkpA7-48" style="connectable=0;recursiveResize=0;strokeColor=inherit;fillColor=none;align=center;whiteSpace=wrap;html=1;" vertex="1" parent="zaTpepWHVZMuqjSjkpA7-43">
          <mxGeometry x="90" width="23" height="21" as="geometry">
            <mxRectangle width="23" height="21" as="alternateBounds" />
          </mxGeometry>
        </mxCell>
        <mxCell id="zaTpepWHVZMuqjSjkpA7-49" style="connectable=0;recursiveResize=0;strokeColor=inherit;fillColor=none;align=center;whiteSpace=wrap;html=1;" vertex="1" parent="zaTpepWHVZMuqjSjkpA7-43">
          <mxGeometry x="113" width="22" height="21" as="geometry">
            <mxRectangle width="22" height="21" as="alternateBounds" />
          </mxGeometry>
        </mxCell>
        <mxCell id="zaTpepWHVZMuqjSjkpA7-50" style="connectable=0;recursiveResize=0;strokeColor=inherit;fillColor=none;align=center;whiteSpace=wrap;html=1;" vertex="1" parent="zaTpepWHVZMuqjSjkpA7-43">
          <mxGeometry x="135" width="22" height="21" as="geometry">
            <mxRectangle width="22" height="21" as="alternateBounds" />
          </mxGeometry>
        </mxCell>
        <mxCell id="zaTpepWHVZMuqjSjkpA7-51" style="connectable=0;recursiveResize=0;strokeColor=inherit;fillColor=none;align=center;whiteSpace=wrap;html=1;" vertex="1" parent="zaTpepWHVZMuqjSjkpA7-43">
          <mxGeometry x="157" width="21" height="21" as="geometry">
            <mxRectangle width="21" height="21" as="alternateBounds" />
          </mxGeometry>
        </mxCell>
        <mxCell id="zaTpepWHVZMuqjSjkpA7-34" style="shape=tableRow;horizontal=0;startSize=0;swimlaneHead=0;swimlaneBody=0;top=0;left=0;bottom=0;right=0;dropTarget=0;collapsible=0;recursiveResize=0;expand=0;fontStyle=0;fillColor=none;strokeColor=inherit;" vertex="1" parent="3EPdU6W2R7ERKH5k_RKv-4">
          <mxGeometry y="62" width="178" height="21" as="geometry" />
        </mxCell>
        <mxCell id="zaTpepWHVZMuqjSjkpA7-35" style="connectable=0;recursiveResize=0;strokeColor=inherit;fillColor=none;align=center;whiteSpace=wrap;html=1;" vertex="1" parent="zaTpepWHVZMuqjSjkpA7-34">
          <mxGeometry width="23" height="21" as="geometry">
            <mxRectangle width="23" height="21" as="alternateBounds" />
          </mxGeometry>
        </mxCell>
        <mxCell id="zaTpepWHVZMuqjSjkpA7-36" style="connectable=0;recursiveResize=0;strokeColor=inherit;fillColor=none;align=center;whiteSpace=wrap;html=1;" vertex="1" parent="zaTpepWHVZMuqjSjkpA7-34">
          <mxGeometry x="23" width="22" height="21" as="geometry">
            <mxRectangle width="22" height="21" as="alternateBounds" />
          </mxGeometry>
        </mxCell>
        <mxCell id="zaTpepWHVZMuqjSjkpA7-37" style="connectable=0;recursiveResize=0;strokeColor=inherit;fillColor=none;align=center;whiteSpace=wrap;html=1;" vertex="1" parent="zaTpepWHVZMuqjSjkpA7-34">
          <mxGeometry x="45" width="22" height="21" as="geometry">
            <mxRectangle width="22" height="21" as="alternateBounds" />
          </mxGeometry>
        </mxCell>
        <mxCell id="zaTpepWHVZMuqjSjkpA7-38" style="connectable=0;recursiveResize=0;strokeColor=inherit;fillColor=none;align=center;whiteSpace=wrap;html=1;" vertex="1" parent="zaTpepWHVZMuqjSjkpA7-34">
          <mxGeometry x="67" width="23" height="21" as="geometry">
            <mxRectangle width="23" height="21" as="alternateBounds" />
          </mxGeometry>
        </mxCell>
        <mxCell id="zaTpepWHVZMuqjSjkpA7-39" style="connectable=0;recursiveResize=0;strokeColor=inherit;fillColor=none;align=center;whiteSpace=wrap;html=1;" vertex="1" parent="zaTpepWHVZMuqjSjkpA7-34">
          <mxGeometry x="90" width="23" height="21" as="geometry">
            <mxRectangle width="23" height="21" as="alternateBounds" />
          </mxGeometry>
        </mxCell>
        <mxCell id="zaTpepWHVZMuqjSjkpA7-40" style="connectable=0;recursiveResize=0;strokeColor=inherit;fillColor=none;align=center;whiteSpace=wrap;html=1;" vertex="1" parent="zaTpepWHVZMuqjSjkpA7-34">
          <mxGeometry x="113" width="22" height="21" as="geometry">
            <mxRectangle width="22" height="21" as="alternateBounds" />
          </mxGeometry>
        </mxCell>
        <mxCell id="zaTpepWHVZMuqjSjkpA7-41" style="connectable=0;recursiveResize=0;strokeColor=inherit;fillColor=none;align=center;whiteSpace=wrap;html=1;" vertex="1" parent="zaTpepWHVZMuqjSjkpA7-34">
          <mxGeometry x="135" width="22" height="21" as="geometry">
            <mxRectangle width="22" height="21" as="alternateBounds" />
          </mxGeometry>
        </mxCell>
        <mxCell id="zaTpepWHVZMuqjSjkpA7-42" style="connectable=0;recursiveResize=0;strokeColor=inherit;fillColor=none;align=center;whiteSpace=wrap;html=1;" vertex="1" parent="zaTpepWHVZMuqjSjkpA7-34">
          <mxGeometry x="157" width="21" height="21" as="geometry">
            <mxRectangle width="21" height="21" as="alternateBounds" />
          </mxGeometry>
        </mxCell>
        <mxCell id="zaTpepWHVZMuqjSjkpA7-25" style="shape=tableRow;horizontal=0;startSize=0;swimlaneHead=0;swimlaneBody=0;top=0;left=0;bottom=0;right=0;dropTarget=0;collapsible=0;recursiveResize=0;expand=0;fontStyle=0;fillColor=none;strokeColor=inherit;" vertex="1" parent="3EPdU6W2R7ERKH5k_RKv-4">
          <mxGeometry y="83" width="178" height="20" as="geometry" />
        </mxCell>
        <mxCell id="zaTpepWHVZMuqjSjkpA7-26" style="connectable=0;recursiveResize=0;strokeColor=inherit;fillColor=none;align=center;whiteSpace=wrap;html=1;" vertex="1" parent="zaTpepWHVZMuqjSjkpA7-25">
          <mxGeometry width="23" height="20" as="geometry">
            <mxRectangle width="23" height="20" as="alternateBounds" />
          </mxGeometry>
        </mxCell>
        <mxCell id="zaTpepWHVZMuqjSjkpA7-27" style="connectable=0;recursiveResize=0;strokeColor=inherit;fillColor=none;align=center;whiteSpace=wrap;html=1;" vertex="1" parent="zaTpepWHVZMuqjSjkpA7-25">
          <mxGeometry x="23" width="22" height="20" as="geometry">
            <mxRectangle width="22" height="20" as="alternateBounds" />
          </mxGeometry>
        </mxCell>
        <mxCell id="zaTpepWHVZMuqjSjkpA7-28" style="connectable=0;recursiveResize=0;strokeColor=inherit;fillColor=none;align=center;whiteSpace=wrap;html=1;" vertex="1" parent="zaTpepWHVZMuqjSjkpA7-25">
          <mxGeometry x="45" width="22" height="20" as="geometry">
            <mxRectangle width="22" height="20" as="alternateBounds" />
          </mxGeometry>
        </mxCell>
        <mxCell id="zaTpepWHVZMuqjSjkpA7-29" style="connectable=0;recursiveResize=0;strokeColor=inherit;fillColor=none;align=center;whiteSpace=wrap;html=1;" vertex="1" parent="zaTpepWHVZMuqjSjkpA7-25">
          <mxGeometry x="67" width="23" height="20" as="geometry">
            <mxRectangle width="23" height="20" as="alternateBounds" />
          </mxGeometry>
        </mxCell>
        <mxCell id="zaTpepWHVZMuqjSjkpA7-30" style="connectable=0;recursiveResize=0;strokeColor=inherit;fillColor=none;align=center;whiteSpace=wrap;html=1;" vertex="1" parent="zaTpepWHVZMuqjSjkpA7-25">
          <mxGeometry x="90" width="23" height="20" as="geometry">
            <mxRectangle width="23" height="20" as="alternateBounds" />
          </mxGeometry>
        </mxCell>
        <mxCell id="zaTpepWHVZMuqjSjkpA7-31" style="connectable=0;recursiveResize=0;strokeColor=inherit;fillColor=none;align=center;whiteSpace=wrap;html=1;" vertex="1" parent="zaTpepWHVZMuqjSjkpA7-25">
          <mxGeometry x="113" width="22" height="20" as="geometry">
            <mxRectangle width="22" height="20" as="alternateBounds" />
          </mxGeometry>
        </mxCell>
        <mxCell id="zaTpepWHVZMuqjSjkpA7-32" style="connectable=0;recursiveResize=0;strokeColor=inherit;fillColor=none;align=center;whiteSpace=wrap;html=1;" vertex="1" parent="zaTpepWHVZMuqjSjkpA7-25">
          <mxGeometry x="135" width="22" height="20" as="geometry">
            <mxRectangle width="22" height="20" as="alternateBounds" />
          </mxGeometry>
        </mxCell>
        <mxCell id="zaTpepWHVZMuqjSjkpA7-33" style="connectable=0;recursiveResize=0;strokeColor=inherit;fillColor=none;align=center;whiteSpace=wrap;html=1;" vertex="1" parent="zaTpepWHVZMuqjSjkpA7-25">
          <mxGeometry x="157" width="21" height="20" as="geometry">
            <mxRectangle width="21" height="20" as="alternateBounds" />
          </mxGeometry>
        </mxCell>
        <mxCell id="zaTpepWHVZMuqjSjkpA7-16" style="shape=tableRow;horizontal=0;startSize=0;swimlaneHead=0;swimlaneBody=0;top=0;left=0;bottom=0;right=0;dropTarget=0;collapsible=0;recursiveResize=0;expand=0;fontStyle=0;fillColor=none;strokeColor=inherit;" vertex="1" parent="3EPdU6W2R7ERKH5k_RKv-4">
          <mxGeometry y="103" width="178" height="21" as="geometry" />
        </mxCell>
        <mxCell id="zaTpepWHVZMuqjSjkpA7-17" style="connectable=0;recursiveResize=0;strokeColor=inherit;fillColor=none;align=center;whiteSpace=wrap;html=1;" vertex="1" parent="zaTpepWHVZMuqjSjkpA7-16">
          <mxGeometry width="23" height="21" as="geometry">
            <mxRectangle width="23" height="21" as="alternateBounds" />
          </mxGeometry>
        </mxCell>
        <mxCell id="zaTpepWHVZMuqjSjkpA7-18" style="connectable=0;recursiveResize=0;strokeColor=inherit;fillColor=none;align=center;whiteSpace=wrap;html=1;" vertex="1" parent="zaTpepWHVZMuqjSjkpA7-16">
          <mxGeometry x="23" width="22" height="21" as="geometry">
            <mxRectangle width="22" height="21" as="alternateBounds" />
          </mxGeometry>
        </mxCell>
        <mxCell id="zaTpepWHVZMuqjSjkpA7-19" style="connectable=0;recursiveResize=0;strokeColor=inherit;fillColor=none;align=center;whiteSpace=wrap;html=1;" vertex="1" parent="zaTpepWHVZMuqjSjkpA7-16">
          <mxGeometry x="45" width="22" height="21" as="geometry">
            <mxRectangle width="22" height="21" as="alternateBounds" />
          </mxGeometry>
        </mxCell>
        <mxCell id="zaTpepWHVZMuqjSjkpA7-20" style="connectable=0;recursiveResize=0;strokeColor=inherit;fillColor=none;align=center;whiteSpace=wrap;html=1;" vertex="1" parent="zaTpepWHVZMuqjSjkpA7-16">
          <mxGeometry x="67" width="23" height="21" as="geometry">
            <mxRectangle width="23" height="21" as="alternateBounds" />
          </mxGeometry>
        </mxCell>
        <mxCell id="zaTpepWHVZMuqjSjkpA7-21" style="connectable=0;recursiveResize=0;strokeColor=inherit;fillColor=none;align=center;whiteSpace=wrap;html=1;" vertex="1" parent="zaTpepWHVZMuqjSjkpA7-16">
          <mxGeometry x="90" width="23" height="21" as="geometry">
            <mxRectangle width="23" height="21" as="alternateBounds" />
          </mxGeometry>
        </mxCell>
        <mxCell id="zaTpepWHVZMuqjSjkpA7-22" style="connectable=0;recursiveResize=0;strokeColor=inherit;fillColor=none;align=center;whiteSpace=wrap;html=1;" vertex="1" parent="zaTpepWHVZMuqjSjkpA7-16">
          <mxGeometry x="113" width="22" height="21" as="geometry">
            <mxRectangle width="22" height="21" as="alternateBounds" />
          </mxGeometry>
        </mxCell>
        <mxCell id="zaTpepWHVZMuqjSjkpA7-23" style="connectable=0;recursiveResize=0;strokeColor=inherit;fillColor=none;align=center;whiteSpace=wrap;html=1;" vertex="1" parent="zaTpepWHVZMuqjSjkpA7-16">
          <mxGeometry x="135" width="22" height="21" as="geometry">
            <mxRectangle width="22" height="21" as="alternateBounds" />
          </mxGeometry>
        </mxCell>
        <mxCell id="zaTpepWHVZMuqjSjkpA7-24" style="connectable=0;recursiveResize=0;strokeColor=inherit;fillColor=none;align=center;whiteSpace=wrap;html=1;" vertex="1" parent="zaTpepWHVZMuqjSjkpA7-16">
          <mxGeometry x="157" width="21" height="21" as="geometry">
            <mxRectangle width="21" height="21" as="alternateBounds" />
          </mxGeometry>
        </mxCell>
        <mxCell id="3EPdU6W2R7ERKH5k_RKv-5" value="" style="shape=tableRow;horizontal=0;startSize=0;swimlaneHead=0;swimlaneBody=0;top=0;left=0;bottom=0;right=0;dropTarget=0;collapsible=0;recursiveResize=0;expand=0;fontStyle=0;fillColor=none;strokeColor=inherit;" parent="3EPdU6W2R7ERKH5k_RKv-4" vertex="1">
          <mxGeometry y="124" width="178" height="21" as="geometry" />
        </mxCell>
        <mxCell id="zaTpepWHVZMuqjSjkpA7-13" style="connectable=0;recursiveResize=0;strokeColor=inherit;fillColor=none;align=center;whiteSpace=wrap;html=1;" vertex="1" parent="3EPdU6W2R7ERKH5k_RKv-5">
          <mxGeometry width="23" height="21" as="geometry">
            <mxRectangle width="23" height="21" as="alternateBounds" />
          </mxGeometry>
        </mxCell>
        <mxCell id="zaTpepWHVZMuqjSjkpA7-10" style="connectable=0;recursiveResize=0;strokeColor=inherit;fillColor=none;align=center;whiteSpace=wrap;html=1;" vertex="1" parent="3EPdU6W2R7ERKH5k_RKv-5">
          <mxGeometry x="23" width="22" height="21" as="geometry">
            <mxRectangle width="22" height="21" as="alternateBounds" />
          </mxGeometry>
        </mxCell>
        <mxCell id="zaTpepWHVZMuqjSjkpA7-7" style="connectable=0;recursiveResize=0;strokeColor=inherit;fillColor=none;align=center;whiteSpace=wrap;html=1;" vertex="1" parent="3EPdU6W2R7ERKH5k_RKv-5">
          <mxGeometry x="45" width="22" height="21" as="geometry">
            <mxRectangle width="22" height="21" as="alternateBounds" />
          </mxGeometry>
        </mxCell>
        <mxCell id="zaTpepWHVZMuqjSjkpA7-4" style="connectable=0;recursiveResize=0;strokeColor=inherit;fillColor=none;align=center;whiteSpace=wrap;html=1;" vertex="1" parent="3EPdU6W2R7ERKH5k_RKv-5">
          <mxGeometry x="67" width="23" height="21" as="geometry">
            <mxRectangle width="23" height="21" as="alternateBounds" />
          </mxGeometry>
        </mxCell>
        <mxCell id="zaTpepWHVZMuqjSjkpA7-1" style="connectable=0;recursiveResize=0;strokeColor=inherit;fillColor=none;align=center;whiteSpace=wrap;html=1;" vertex="1" parent="3EPdU6W2R7ERKH5k_RKv-5">
          <mxGeometry x="90" width="23" height="21" as="geometry">
            <mxRectangle width="23" height="21" as="alternateBounds" />
          </mxGeometry>
        </mxCell>
        <mxCell id="3EPdU6W2R7ERKH5k_RKv-6" value="" style="connectable=0;recursiveResize=0;strokeColor=inherit;fillColor=none;align=center;whiteSpace=wrap;html=1;" parent="3EPdU6W2R7ERKH5k_RKv-5" vertex="1">
          <mxGeometry x="113" width="22" height="21" as="geometry">
            <mxRectangle width="22" height="21" as="alternateBounds" />
          </mxGeometry>
        </mxCell>
        <mxCell id="3EPdU6W2R7ERKH5k_RKv-7" value="" style="connectable=0;recursiveResize=0;strokeColor=inherit;fillColor=none;align=center;whiteSpace=wrap;html=1;" parent="3EPdU6W2R7ERKH5k_RKv-5" vertex="1">
          <mxGeometry x="135" width="22" height="21" as="geometry">
            <mxRectangle width="22" height="21" as="alternateBounds" />
          </mxGeometry>
        </mxCell>
        <mxCell id="3EPdU6W2R7ERKH5k_RKv-8" value="" style="connectable=0;recursiveResize=0;strokeColor=inherit;fillColor=none;align=center;whiteSpace=wrap;html=1;" parent="3EPdU6W2R7ERKH5k_RKv-5" vertex="1">
          <mxGeometry x="157" width="21" height="21" as="geometry">
            <mxRectangle width="21" height="21" as="alternateBounds" />
          </mxGeometry>
        </mxCell>
        <mxCell id="3EPdU6W2R7ERKH5k_RKv-9" style="shape=tableRow;horizontal=0;startSize=0;swimlaneHead=0;swimlaneBody=0;top=0;left=0;bottom=0;right=0;dropTarget=0;collapsible=0;recursiveResize=0;expand=0;fontStyle=0;fillColor=none;strokeColor=inherit;" parent="3EPdU6W2R7ERKH5k_RKv-4" vertex="1">
          <mxGeometry y="145" width="178" height="19" as="geometry" />
        </mxCell>
        <mxCell id="zaTpepWHVZMuqjSjkpA7-14" style="connectable=0;recursiveResize=0;strokeColor=inherit;fillColor=none;align=center;whiteSpace=wrap;html=1;" vertex="1" parent="3EPdU6W2R7ERKH5k_RKv-9">
          <mxGeometry width="23" height="19" as="geometry">
            <mxRectangle width="23" height="19" as="alternateBounds" />
          </mxGeometry>
        </mxCell>
        <mxCell id="zaTpepWHVZMuqjSjkpA7-11" style="connectable=0;recursiveResize=0;strokeColor=inherit;fillColor=none;align=center;whiteSpace=wrap;html=1;" vertex="1" parent="3EPdU6W2R7ERKH5k_RKv-9">
          <mxGeometry x="23" width="22" height="19" as="geometry">
            <mxRectangle width="22" height="19" as="alternateBounds" />
          </mxGeometry>
        </mxCell>
        <mxCell id="zaTpepWHVZMuqjSjkpA7-8" style="connectable=0;recursiveResize=0;strokeColor=inherit;fillColor=none;align=center;whiteSpace=wrap;html=1;" vertex="1" parent="3EPdU6W2R7ERKH5k_RKv-9">
          <mxGeometry x="45" width="22" height="19" as="geometry">
            <mxRectangle width="22" height="19" as="alternateBounds" />
          </mxGeometry>
        </mxCell>
        <mxCell id="zaTpepWHVZMuqjSjkpA7-5" style="connectable=0;recursiveResize=0;strokeColor=inherit;fillColor=none;align=center;whiteSpace=wrap;html=1;" vertex="1" parent="3EPdU6W2R7ERKH5k_RKv-9">
          <mxGeometry x="67" width="23" height="19" as="geometry">
            <mxRectangle width="23" height="19" as="alternateBounds" />
          </mxGeometry>
        </mxCell>
        <mxCell id="zaTpepWHVZMuqjSjkpA7-2" style="connectable=0;recursiveResize=0;strokeColor=inherit;fillColor=none;align=center;whiteSpace=wrap;html=1;" vertex="1" parent="3EPdU6W2R7ERKH5k_RKv-9">
          <mxGeometry x="90" width="23" height="19" as="geometry">
            <mxRectangle width="23" height="19" as="alternateBounds" />
          </mxGeometry>
        </mxCell>
        <mxCell id="3EPdU6W2R7ERKH5k_RKv-10" value="" style="connectable=0;recursiveResize=0;strokeColor=inherit;fillColor=none;align=center;whiteSpace=wrap;html=1;" parent="3EPdU6W2R7ERKH5k_RKv-9" vertex="1">
          <mxGeometry x="113" width="22" height="19" as="geometry">
            <mxRectangle width="22" height="19" as="alternateBounds" />
          </mxGeometry>
        </mxCell>
        <mxCell id="3EPdU6W2R7ERKH5k_RKv-11" value="" style="connectable=0;recursiveResize=0;strokeColor=inherit;fillColor=none;align=center;whiteSpace=wrap;html=1;" parent="3EPdU6W2R7ERKH5k_RKv-9" vertex="1">
          <mxGeometry x="135" width="22" height="19" as="geometry">
            <mxRectangle width="22" height="19" as="alternateBounds" />
          </mxGeometry>
        </mxCell>
        <mxCell id="3EPdU6W2R7ERKH5k_RKv-12" value="" style="connectable=0;recursiveResize=0;strokeColor=inherit;fillColor=none;align=center;whiteSpace=wrap;html=1;" parent="3EPdU6W2R7ERKH5k_RKv-9" vertex="1">
          <mxGeometry x="157" width="21" height="19" as="geometry">
            <mxRectangle width="21" height="19" as="alternateBounds" />
          </mxGeometry>
        </mxCell>
        <mxCell id="3EPdU6W2R7ERKH5k_RKv-13" style="shape=tableRow;horizontal=0;startSize=0;swimlaneHead=0;swimlaneBody=0;top=0;left=0;bottom=0;right=0;dropTarget=0;collapsible=0;recursiveResize=0;expand=0;fontStyle=0;fillColor=none;strokeColor=inherit;" parent="3EPdU6W2R7ERKH5k_RKv-4" vertex="1">
          <mxGeometry y="164" width="178" height="19" as="geometry" />
        </mxCell>
        <mxCell id="zaTpepWHVZMuqjSjkpA7-15" style="connectable=0;recursiveResize=0;strokeColor=inherit;fillColor=none;align=center;whiteSpace=wrap;html=1;" vertex="1" parent="3EPdU6W2R7ERKH5k_RKv-13">
          <mxGeometry width="23" height="19" as="geometry">
            <mxRectangle width="23" height="19" as="alternateBounds" />
          </mxGeometry>
        </mxCell>
        <mxCell id="zaTpepWHVZMuqjSjkpA7-12" style="connectable=0;recursiveResize=0;strokeColor=inherit;fillColor=none;align=center;whiteSpace=wrap;html=1;" vertex="1" parent="3EPdU6W2R7ERKH5k_RKv-13">
          <mxGeometry x="23" width="22" height="19" as="geometry">
            <mxRectangle width="22" height="19" as="alternateBounds" />
          </mxGeometry>
        </mxCell>
        <mxCell id="zaTpepWHVZMuqjSjkpA7-9" style="connectable=0;recursiveResize=0;strokeColor=inherit;fillColor=none;align=center;whiteSpace=wrap;html=1;" vertex="1" parent="3EPdU6W2R7ERKH5k_RKv-13">
          <mxGeometry x="45" width="22" height="19" as="geometry">
            <mxRectangle width="22" height="19" as="alternateBounds" />
          </mxGeometry>
        </mxCell>
        <mxCell id="zaTpepWHVZMuqjSjkpA7-6" style="connectable=0;recursiveResize=0;strokeColor=inherit;fillColor=none;align=center;whiteSpace=wrap;html=1;" vertex="1" parent="3EPdU6W2R7ERKH5k_RKv-13">
          <mxGeometry x="67" width="23" height="19" as="geometry">
            <mxRectangle width="23" height="19" as="alternateBounds" />
          </mxGeometry>
        </mxCell>
        <mxCell id="zaTpepWHVZMuqjSjkpA7-3" style="connectable=0;recursiveResize=0;strokeColor=inherit;fillColor=none;align=center;whiteSpace=wrap;html=1;" vertex="1" parent="3EPdU6W2R7ERKH5k_RKv-13">
          <mxGeometry x="90" width="23" height="19" as="geometry">
            <mxRectangle width="23" height="19" as="alternateBounds" />
          </mxGeometry>
        </mxCell>
        <mxCell id="3EPdU6W2R7ERKH5k_RKv-14" value="" style="connectable=0;recursiveResize=0;strokeColor=inherit;fillColor=none;align=center;whiteSpace=wrap;html=1;" parent="3EPdU6W2R7ERKH5k_RKv-13" vertex="1">
          <mxGeometry x="113" width="22" height="19" as="geometry">
            <mxRectangle width="22" height="19" as="alternateBounds" />
          </mxGeometry>
        </mxCell>
        <mxCell id="3EPdU6W2R7ERKH5k_RKv-15" value="" style="connectable=0;recursiveResize=0;strokeColor=inherit;fillColor=none;align=center;whiteSpace=wrap;html=1;" parent="3EPdU6W2R7ERKH5k_RKv-13" vertex="1">
          <mxGeometry x="135" width="22" height="19" as="geometry">
            <mxRectangle width="22" height="19" as="alternateBounds" />
          </mxGeometry>
        </mxCell>
        <mxCell id="3EPdU6W2R7ERKH5k_RKv-16" value="" style="connectable=0;recursiveResize=0;strokeColor=inherit;fillColor=none;align=center;whiteSpace=wrap;html=1;" parent="3EPdU6W2R7ERKH5k_RKv-13" vertex="1">
          <mxGeometry x="157" width="21" height="19" as="geometry">
            <mxRectangle width="21" height="19" as="alternateBounds" />
          </mxGeometry>
        </mxCell>
        <mxCell id="3EPdU6W2R7ERKH5k_RKv-17" value="" style="shape=image;html=1;verticalAlign=top;verticalLabelPosition=bottom;labelBackgroundColor=#0000CC;imageAspect=0;image=https://cdn1.iconfinder.com/data/icons/ionicons-outline-vol-2/512/water-outline-128.png;recursiveResize=1;perimeter=rectanglePerimeter;collapsible=0;movable=1;resizeWidth=0;fixedWidth=0;portConstraintRotation=0;resizable=1;rotatable=1;deletable=1;editable=1;locked=0;connectable=1;aspect=fixed;flipH=0;fillColor=#0000FF;strokeColor=#0000CC;" parent="1" vertex="1">
          <mxGeometry x="290" y="160" width="29.48" height="45" as="geometry" />
        </mxCell>
      </root>
    </mxGraphModel>
  </diagram>
</mxfile>
